# xmcd
#
# Track frame offsets: 
#        150
#        12576
#        24938
#        40728
#        53667
#        66302
#        81821
#        95284
#        102829
#        113665
#        124172
#        138897
#        151644
#        164693
#        178570
#        192439
#        206248
#        220943
#        234946
#        248551
#        262558
#        275379
#        290284
#        303729
#        316695
#        330705
#        345089
#
# Disc length: 4778 seconds
#
# Revision: 0
# Processed by: cddbd v1.5.2PL0 Copyright (c) Steve Scherf et al.
# Submitted via: ExactAudioCopyFreeDBPlugin 1.0
#
DISCID=6712a81b
DTITLE=Various Artist - VA - Really the Blues - Disc 21
DYEAR=1900
DGENRE=40s
TTITLE0=Cecil Gant - I Wonder
TTITLE1=Harry the Hipster Gibson - The Hipster's Blues
TTITLE2=Art Hodes - M.K. Blues
TTITLE3=Lester Young - Four O'Clock Drag
TTITLE4=Johnny Mercer - Sugar
TTITLE5=Hot Lips Page - Lips Blues
TTITLE6=Tiny Grimes with Charlie Parker - I'll Always Love You Just th
TTITLE6=e Same
TTITLE7=James P. Johnson - Willow Tree
TTITLE8=Woody Guthrie with Cisco Houston - Bed on the Floor
TTITLE9=Sarah Vaughan with Dizzy Gillespie - No Smokes Blues
TTITLE10=Billy Eckstein - Blowin' the Blues Away
TTITLE11=Cootie Williams with Bud Powell - West End Blues
TTITLE12=Boy Green - Play My Jukebox
TTITLE13=Willie Smith - Willie Weep for Me
TTITLE14=Freddie Webster and Eddie Lockjaw Davis - I Fell for You
TTITLE15=Slim Gaillard - Travellin' Blues
TTITLE16=Leo Watson - Scattin' the Blues
TTITLE17=Joe Liggins - The Honeydripper Part 1
TTITLE18=Cow Cow Davenport - Hobron City Stomp
TTITLE19=June Christy - Can't Help Lovin' That Man
TTITLE20=Gatemouth Moore - Did You Ever Love a Woman
TTITLE21=Dinah Washington with Lionel Hampton - Evil Gal Blues
TTITLE22=Artie Shaw and His Gramercy Five - Misterioso
TTITLE23=Peggy Lee - I'm Confessin'
TTITLE24=Arthur Crudup - Dirt Road Blues
TTITLE25=Bunk Johnson and George Lewis - Snag It
TTITLE26=I Wonder
EXTD=
EXTT0=
EXTT1=
EXTT2=
EXTT3=
EXTT4=
EXTT5=
EXTT6=
EXTT7=
EXTT8=
EXTT9=
EXTT10=
EXTT11=
EXTT12=
EXTT13=
EXTT14=
EXTT15=
EXTT16=
EXTT17=
EXTT18=
EXTT19=
EXTT20=
EXTT21=
EXTT22=
EXTT23=
EXTT24=
EXTT25=
EXTT26=
PLAYORDER=
